<svg width="128" height="38" viewBox="0 0 128 38" fill="none" xmlns="http://www.w3.org/2000/svg">
<g opacity="0.6">
<path opacity="0.6" d="M59.3029 25.0067C59.5 25.0067 59.6702 25.0834 59.8136 25.2367L61.2383 26.7929C60.4498 27.7762 59.4776 28.5294 58.3217 29.0527C57.1748 29.5759 55.795 29.8375 54.1821 29.8375C52.7395 29.8375 51.4403 29.5895 50.2844 29.0933C49.1375 28.5971 48.1563 27.907 47.3409 27.0229C46.5255 26.1388 45.8983 25.0834 45.4593 23.8565C45.0292 22.6296 44.8141 21.29 44.8141 19.8376C44.8141 18.3672 45.056 17.023 45.5399 15.8051C46.0237 14.5782 46.7047 13.5228 47.5829 12.6387C48.461 11.7547 49.5093 11.069 50.7279 10.5819C51.9555 10.0857 53.3085 9.83765 54.7869 9.83765C56.2295 9.83765 57.4884 10.0722 58.5636 10.5413C59.6478 11.0014 60.5753 11.6148 61.3458 12.3816L60.1362 14.0731C60.0645 14.1813 59.9704 14.276 59.854 14.3573C59.7464 14.4385 59.5941 14.479 59.3969 14.479C59.1909 14.479 58.9803 14.3978 58.7653 14.2355C58.5502 14.0731 58.2769 13.8971 57.9454 13.7077C57.6139 13.5183 57.1927 13.3423 56.682 13.18C56.1802 13.0176 55.5395 12.9364 54.76 12.9364C53.8461 12.9364 53.0038 13.0988 52.2332 13.4235C51.4716 13.7393 50.8131 14.1948 50.2575 14.7903C49.7109 15.3856 49.2808 16.1119 48.9672 16.9688C48.6626 17.8168 48.5102 18.7731 48.5102 19.8376C48.5102 20.9382 48.6626 21.9169 48.9672 22.774C49.2808 23.631 49.7019 24.3527 50.2306 24.939C50.7592 25.5255 51.382 25.9765 52.0988 26.2922C52.8156 26.599 53.5862 26.7523 54.4106 26.7523C54.9034 26.7523 55.3469 26.7253 55.7411 26.6711C56.1444 26.617 56.5118 26.5313 56.8432 26.414C57.1838 26.2967 57.5019 26.1479 57.7976 25.9675C58.1022 25.778 58.4024 25.548 58.6981 25.2774C58.7877 25.1962 58.8817 25.133 58.9803 25.0879C59.0789 25.0338 59.1864 25.0067 59.3029 25.0067Z" fill="#30424F"/>
<path opacity="0.6" d="M74.0577 29.6211H72.5658C72.2522 29.6211 72.0058 29.576 71.8266 29.4858C71.6474 29.3866 71.513 29.1926 71.4234 28.9039L71.1277 27.9161C70.7783 28.2319 70.4333 28.5115 70.0928 28.755C69.7612 28.9896 69.4163 29.1881 69.0579 29.3505C68.6995 29.5129 68.3187 29.6346 67.9154 29.7158C67.5122 29.797 67.0642 29.8376 66.5714 29.8376C65.989 29.8376 65.4514 29.7609 64.9585 29.6075C64.4657 29.4452 64.0401 29.2062 63.6817 28.8903C63.3323 28.5746 63.059 28.1822 62.8619 27.7131C62.6647 27.244 62.5662 26.6982 62.5662 26.0758C62.5662 25.5525 62.7006 25.0384 62.9694 24.5331C63.2472 24.019 63.7041 23.5589 64.3403 23.1529C64.9765 22.738 65.8233 22.3951 66.8806 22.1245C67.9379 21.8539 69.2505 21.7005 70.8185 21.6645V20.8525C70.8185 19.9233 70.6215 19.2378 70.2272 18.7957C69.8419 18.3447 69.2774 18.1192 68.5337 18.1192C67.9961 18.1192 67.5481 18.1823 67.1897 18.3086C66.8313 18.4349 66.5177 18.5792 66.2489 18.7416C65.989 18.8949 65.747 19.0348 65.523 19.1611C65.299 19.2873 65.0526 19.3505 64.7838 19.3505C64.5598 19.3505 64.3672 19.2919 64.2059 19.1746C64.0446 19.0573 63.9147 18.913 63.8161 18.7416L63.2113 17.6726C64.7973 16.2111 66.7103 15.4805 68.9503 15.4805C69.7568 15.4805 70.4736 15.6158 71.1008 15.8864C71.737 16.148 72.2746 16.5179 72.7137 16.996C73.1527 17.4651 73.4842 18.0289 73.7082 18.6874C73.9413 19.346 74.0577 20.0677 74.0577 20.8525V29.6211ZM67.6063 27.5372C67.9468 27.5372 68.2604 27.5056 68.5471 27.4425C68.8339 27.3793 69.1027 27.2846 69.3536 27.1583C69.6135 27.0321 69.8599 26.8787 70.0928 26.6982C70.3347 26.5088 70.5767 26.2877 70.8185 26.0352V23.6942C69.8508 23.7393 69.04 23.825 68.3859 23.9513C67.7407 24.0686 67.221 24.222 66.8268 24.4114C66.4325 24.6008 66.1502 24.8219 65.9801 25.0744C65.8188 25.327 65.7381 25.6022 65.7381 25.8999C65.7381 26.4863 65.9084 26.9057 66.2489 27.1583C66.5983 27.4109 67.0508 27.5372 67.6063 27.5372Z" fill="#30424F"/>
<path opacity="0.6" d="M76.7844 29.6211V15.7375H78.7333C79.0738 15.7375 79.3113 15.8007 79.4457 15.927C79.5801 16.0533 79.6697 16.2698 79.7145 16.5765L79.9161 18.2545C80.4089 17.3974 80.9868 16.7208 81.6499 16.2247C82.313 15.7285 83.0564 15.4805 83.881 15.4805C84.5621 15.4805 85.1266 15.6383 85.5746 15.9541L85.1446 18.4574C85.1175 18.6198 85.0593 18.7371 84.9698 18.8093C84.8804 18.8724 84.759 18.9039 84.6064 18.9039C84.4726 18.9039 84.2888 18.8724 84.0558 18.8093C83.8228 18.7461 83.5134 18.7145 83.1286 18.7145C82.4386 18.7145 81.847 18.9085 81.3542 19.2964C80.8614 19.6753 80.4447 20.2346 80.1042 20.9744V29.6211H76.7844Z" fill="#30424F"/>
<path opacity="0.6" d="M96.9239 29.621C96.494 29.621 96.2117 29.4181 96.0771 29.0121L95.808 27.6725C95.5216 27.9972 95.2213 28.2904 94.9079 28.552C94.5936 28.8136 94.2531 29.0392 93.8864 29.2287C93.5278 29.4181 93.1381 29.5624 92.7171 29.6616C92.3044 29.7699 91.8564 29.824 91.3731 29.824C90.6199 29.824 89.9298 29.6662 89.303 29.3504C88.6761 29.0347 88.1338 28.5791 87.6767 27.9837C87.2287 27.3793 86.8792 26.6351 86.6281 25.751C86.3861 24.8669 86.2654 23.8565 86.2654 22.7198C86.2654 21.6914 86.4041 20.7352 86.6823 19.8512C86.9596 18.9671 87.3584 18.2002 87.8786 17.5508C88.398 16.9012 89.0207 16.3961 89.7469 16.0352C90.4722 15.6653 91.2878 15.4804 92.1928 15.4804C92.9633 15.4804 93.6222 15.6067 94.1686 15.8593C94.7151 16.1029 95.2033 16.4322 95.6332 16.8471V9.51294H98.953V29.621H96.9239ZM92.5022 27.1718C93.1914 27.1718 93.7789 27.0275 94.2622 26.7388C94.7463 26.4501 95.2033 26.0396 95.6332 25.5074V19.2828C95.2574 18.8228 94.8447 18.498 94.3967 18.3085C93.9577 18.1191 93.4827 18.0244 92.9723 18.0244C92.4702 18.0244 92.0131 18.1191 91.6012 18.3085C91.1984 18.498 90.8529 18.7867 90.5666 19.1745C90.2884 19.5534 90.0734 20.0406 89.9208 20.636C89.769 21.2224 89.6927 21.917 89.6927 22.7198C89.6927 23.5318 89.7551 24.2219 89.8806 24.7903C90.0152 25.3495 90.2031 25.8097 90.4451 26.1705C90.6872 26.5223 90.9834 26.7794 91.3321 26.9418C91.6816 27.0951 92.0714 27.1718 92.5022 27.1718Z" fill="#30424F"/>
<path opacity="0.6" d="M107.711 15.521C108.58 15.521 109.378 15.6609 110.104 15.9405C110.838 16.2201 111.47 16.6306 111.998 17.1718C112.528 17.7041 112.939 18.3627 113.235 19.1475C113.531 19.9233 113.679 20.8119 113.679 21.8132C113.679 22.0658 113.666 22.2778 113.639 22.4492C113.621 22.6116 113.58 22.7424 113.517 22.8417C113.464 22.9319 113.387 22.9996 113.289 23.0447C113.191 23.0808 113.065 23.0988 112.912 23.0988H104.391C104.49 24.5241 104.871 25.5706 105.534 26.2382C106.197 26.9057 107.075 27.2395 108.168 27.2395C108.706 27.2395 109.168 27.1763 109.552 27.05C109.947 26.9237 110.288 26.7839 110.574 26.6305C110.87 26.4772 111.125 26.3374 111.34 26.2111C111.564 26.0847 111.779 26.0216 111.985 26.0216C112.12 26.0216 112.236 26.0486 112.335 26.1028C112.433 26.1569 112.519 26.2336 112.59 26.3328L113.558 27.5507C113.191 27.9838 112.779 28.3491 112.322 28.6468C111.865 28.9355 111.385 29.17 110.883 29.3504C110.39 29.5218 109.884 29.6436 109.365 29.7158C108.853 29.7879 108.356 29.824 107.873 29.824C106.914 29.824 106.023 29.6662 105.198 29.3504C104.373 29.0257 103.657 28.552 103.047 27.9296C102.438 27.2981 101.959 26.5223 101.609 25.6021C101.259 24.673 101.086 23.5995 101.086 22.3816C101.086 21.4344 101.237 20.5458 101.542 19.7159C101.847 18.8769 102.281 18.1507 102.846 17.5372C103.419 16.9148 104.114 16.4231 104.929 16.0622C105.753 15.7014 106.681 15.521 107.711 15.521ZM107.778 17.9162C106.811 17.9162 106.054 18.1912 105.507 18.7416C104.961 19.2918 104.611 20.0722 104.459 21.0825H110.695C110.695 20.6495 110.637 20.2436 110.521 19.8647C110.404 19.4768 110.224 19.1385 109.982 18.8498C109.741 18.5612 109.436 18.3356 109.069 18.1732C108.702 18.0018 108.272 17.9162 107.778 17.9162Z" fill="#30424F"/>
<path opacity="0.6" d="M125.538 29.621C125.108 29.621 124.825 29.4181 124.692 29.0121L124.423 27.6725C124.135 27.9972 123.836 28.2904 123.522 28.552C123.208 28.8136 122.868 29.0392 122.501 29.2287C122.142 29.4181 121.753 29.5624 121.331 29.6616C120.919 29.7699 120.471 29.824 119.987 29.824C119.234 29.824 118.544 29.6662 117.918 29.3504C117.29 29.0347 116.748 28.5791 116.291 27.9837C115.843 27.3793 115.494 26.6351 115.243 25.751C115.001 24.8669 114.88 23.8565 114.88 22.7198C114.88 21.6914 115.019 20.7352 115.297 19.8512C115.574 18.9671 115.973 18.2002 116.492 17.5508C117.013 16.9012 117.635 16.3961 118.361 16.0352C119.087 15.6653 119.902 15.4804 120.807 15.4804C121.578 15.4804 122.236 15.6067 122.783 15.8593C123.33 16.1029 123.818 16.4322 124.248 16.8471V9.51294H127.568V29.621H125.538ZM121.116 27.1718C121.806 27.1718 122.393 27.0275 122.877 26.7388C123.361 26.4501 123.818 26.0396 124.248 25.5074V19.2828C123.871 18.8228 123.459 18.498 123.011 18.3085C122.572 18.1191 122.097 18.0244 121.587 18.0244C121.085 18.0244 120.628 18.1191 120.216 18.3085C119.812 18.498 119.467 18.7867 119.181 19.1745C118.903 19.5534 118.688 20.0406 118.535 20.636C118.384 21.2224 118.307 21.917 118.307 22.7198C118.307 23.5318 118.37 24.2219 118.495 24.7903C118.63 25.3495 118.818 25.8097 119.06 26.1705C119.302 26.5223 119.597 26.7794 119.947 26.9418C120.296 27.0951 120.686 27.1718 121.116 27.1718Z" fill="#30424F"/>
<path opacity="0.6" fill-rule="evenodd" clip-rule="evenodd" d="M7.34948 7.80867C7.9486 5.74413 10.0967 4.55948 12.1473 5.16267L25.0699 8.96392C27.1205 9.56713 28.2972 11.7297 27.6981 13.7943L21.9116 33.7337C21.3125 35.7983 19.1645 36.983 17.1138 36.3798L4.19121 32.5785C2.1406 31.9753 0.963946 29.8127 1.56308 27.7481L7.34948 7.80867ZM11.3127 8.03819C10.8395 7.89899 10.3439 8.17237 10.2056 8.64877L4.41919 28.5883C4.28093 29.0647 4.55247 29.5638 5.02568 29.703L17.9483 33.5042C18.4216 33.6434 18.9172 33.3701 19.0555 32.8936L24.8419 12.9542C24.9802 12.4777 24.7087 11.9786 24.2354 11.8394L11.3127 8.03819Z" fill="#30424F"/>
<path opacity="0.6" fill-rule="evenodd" clip-rule="evenodd" d="M15.4224 4.3028C16.0215 2.23827 18.1695 1.05361 20.2201 1.65681L33.1428 5.45808C35.1934 6.06127 36.3701 8.22389 35.771 10.2885L29.9846 30.2279C29.3854 32.2924 27.2374 33.4771 25.1868 32.8739L12.2641 29.0726C10.2135 28.4695 9.03688 26.3068 9.63602 24.2423L15.4224 4.3028ZM19.3857 4.53233C18.9125 4.39313 18.4167 4.66651 18.2785 5.14294L12.4921 25.0824C12.3539 25.5588 12.6254 26.0579 13.0986 26.1972L26.0212 29.9984C26.4944 30.1376 26.9902 29.8642 27.1285 29.3878L32.9149 9.44832C33.0531 8.97184 32.7815 8.4728 32.3083 8.3336L19.3857 4.53233Z" fill="#30424F"/>
</g>
</svg>
