<svg width="117" height="28" viewBox="0 0 117 28" fill="none" xmlns="http://www.w3.org/2000/svg">
<g clip-path="url(#clip0_1_239)">
<g opacity="0.6">
<path opacity="0.6" d="M53.9783 26.801H70.5025V22.9156H58.5532V15.932H69.553V12.0466H58.5532V5.10045H70.4039V1.21509H53.9783V26.801Z" fill="#30424F"/>
<path opacity="0.6" d="M83.6379 7.61139H79.9014V3.01392H75.4374V7.61139H72.7491V11.1095H75.4374V21.7787C75.4127 25.3892 78.0023 27.1632 81.3565 27.0632C82.6267 27.0258 83.5022 26.7759 83.9832 26.6135L83.2309 23.078C82.9843 23.1404 82.4787 23.2529 81.9238 23.2529C80.8016 23.2529 79.9014 22.853 79.9014 21.029V11.1095H83.6379V7.61139Z" fill="#30424F"/>
<path opacity="0.6" d="M86.6767 26.801H91.1407V15.5197C91.1407 13.0835 92.9533 11.3594 95.4075 11.3594C96.1593 11.3594 97.0971 11.4969 97.4794 11.6218V7.46161C97.0722 7.38664 96.3693 7.33667 95.8764 7.33667C93.7059 7.33667 91.893 8.58598 91.2024 10.8098H91.0051V7.61152H86.6767V26.801Z" fill="#30424F"/>
<path opacity="0.6" d="M107.233 27.1757C112.782 27.1757 116.308 23.2154 116.308 17.2812C116.308 11.3344 112.782 7.36157 107.233 7.36157C101.683 7.36157 98.1566 11.3344 98.1566 17.2812C98.1566 23.2154 101.683 27.1757 107.233 27.1757ZM107.257 23.5527C104.186 23.5527 102.682 20.7792 102.682 17.2687C102.682 13.7581 104.186 10.9471 107.257 10.9471C110.278 10.9471 111.783 13.7581 111.783 17.2687C111.783 20.7792 110.278 23.5527 107.257 23.5527Z" fill="#30424F"/>
<path opacity="0.6" d="M33.7613 13.9953C33.7613 21.2466 27.959 27.125 20.8014 27.125C13.6439 27.125 7.84151 21.2466 7.84151 13.9953C7.84151 6.74388 13.6439 0.865479 20.8014 0.865479C27.959 0.865479 33.7613 6.74388 33.7613 13.9953Z" fill="#414347" fill-opacity="0.6"/>
<path opacity="0.6" fill-rule="evenodd" clip-rule="evenodd" d="M17.0982 1.4092C11.7449 3.02331 7.84111 8.04743 7.84111 13.9953C7.84111 19.9431 11.7449 24.9671 17.0982 26.5813C15.9249 26.9351 14.682 27.125 13.3954 27.125C6.2378 27.125 0.43544 21.2466 0.43544 13.9953C0.43544 6.74388 6.2378 0.865479 13.3954 0.865479C14.682 0.865479 15.9249 1.05544 17.0982 1.4092Z" fill="#414347" fill-opacity="0.25"/>
<path opacity="0.6" d="M41.2862 13.9953C41.2862 21.2466 35.4838 27.125 28.3263 27.125C21.1687 27.125 15.3663 21.2466 15.3663 13.9953C15.3663 6.74388 21.1687 0.865479 28.3263 0.865479C35.4838 0.865479 41.2862 6.74388 41.2862 13.9953Z" fill="#30424F"/>
</g>
</g>
<defs>
<clipPath id="clip0_1_239">
<rect width="117" height="28" fill="white"/>
</clipPath>
</defs>
</svg>
