<svg width="133" height="34" viewBox="0 0 133 34" fill="none" xmlns="http://www.w3.org/2000/svg">
<g clip-path="url(#clip0_1_226)">
<g opacity="0.6">
<path opacity="0.6" fill-rule="evenodd" clip-rule="evenodd" d="M19.3564 1.77015C19.7182 1.65473 20.1116 1.69283 20.4444 1.87554C21.1727 2.27527 21.7266 2.96913 22.1388 3.66339C22.5676 4.38563 22.927 5.2513 23.2066 6.17095C23.7635 8.00252 24.0523 10.2097 23.8484 12.2246C23.7714 12.9851 23.0921 13.5393 22.3311 13.4624C21.57 13.3855 21.0155 12.7066 21.0924 11.9461C21.2539 10.3498 21.0235 8.51276 20.5561 6.97572C20.4272 6.55143 20.2839 6.16255 20.1326 5.81747C19.6804 6.97212 19.2151 8.24447 19.0076 8.93451C18.7875 9.66659 18.0152 10.0817 17.2826 9.86171C16.55 9.64179 16.1346 8.86999 16.3547 8.13791C16.7583 6.79553 17.9765 3.63129 18.5308 2.48605C18.6962 2.14439 18.9946 1.88558 19.3564 1.77015Z" fill="#30424F"/>
<path opacity="0.6" fill-rule="evenodd" clip-rule="evenodd" d="M14.9827 8.1005C15.2582 7.22552 16.1914 6.73943 17.067 7.01479C17.9315 7.28665 18.7758 7.65087 19.5969 8.07346L19.6018 8.07601C23.4377 10.0662 26.2192 13.4254 26.9781 16.891C26.9895 16.9345 27.0067 16.9713 27.0242 16.9983C27.0408 17.024 27.0527 17.0334 27.0529 17.0335L27.0629 17.0406L29.8923 19.0722L29.8965 19.0752C30.9034 19.8029 31.1626 20.9941 31.1138 21.8527C31.065 22.7092 30.6709 23.878 29.5601 24.4765L29.5526 24.4805C28.1046 25.2513 26.3558 25.4902 23.6864 25.0174C23.6743 25.0153 23.6621 25.013 23.6501 25.0106C23.5875 24.998 23.5218 24.9879 23.4083 24.9705L23.3996 24.9691C23.311 24.9555 23.1819 24.9356 23.0452 24.9072C20.9938 24.5822 19.6284 24.6184 18.7847 24.8453C18.032 25.0478 17.8379 25.3455 17.7475 25.6386C17.1174 27.7194 17.6937 28.9417 18.4761 30.6011C18.6009 30.8657 18.7308 31.1413 18.862 31.4333C19.2379 32.2702 18.8637 33.2531 18.0263 33.6287C17.1888 34.0043 16.2052 33.6304 15.8294 32.7935C15.7341 32.5815 15.6255 32.357 15.5104 32.1192C14.6905 30.4247 13.5424 28.0516 14.5671 24.6725L14.5686 24.6676C15.0617 23.0596 16.3048 22.0723 17.9207 21.6377C19.4416 21.2286 21.368 21.2745 23.613 21.634C23.6459 21.6392 23.6786 21.6455 23.7111 21.6527C23.7472 21.6607 23.7982 21.6695 23.9082 21.6864C23.9163 21.6877 23.9247 21.689 23.9336 21.6903C24.0226 21.704 24.1504 21.7235 24.2824 21.7494C26.2403 22.0942 27.1896 21.9112 27.7841 21.6489L25.1276 19.7415C24.3957 19.2221 23.9315 18.447 23.7418 17.6499C23.7391 17.6388 23.7366 17.6277 23.7342 17.6166C23.233 15.299 21.2245 12.6616 18.0725 11.0254C17.3826 10.6705 16.7158 10.3868 16.0691 10.1834C15.1936 9.90807 14.7071 8.97554 14.9827 8.1005Z" fill="#30424F"/>
<path opacity="0.6" fill-rule="evenodd" clip-rule="evenodd" d="M11.0573 4.47765C11.021 4.97032 10.9825 5.45103 10.9458 5.90017C10.9327 6.0611 10.9199 6.21636 10.9076 6.36559C10.8195 7.44012 10.7569 8.2018 10.7569 8.51252C10.7569 9.13487 10.437 9.8498 9.70937 10.2138C8.89537 10.6211 7.77144 11.248 6.76813 11.99C6.75441 12.0001 6.74074 12.0103 6.72715 12.0204C7.0092 12.0967 7.23092 12.1767 7.37572 12.2338C8.10904 12.5093 8.44177 13.169 8.49033 13.7033C8.53495 14.1942 8.37149 14.7206 7.98146 15.1109C7.92949 15.1629 7.87421 15.2114 7.81582 15.256C7.52441 15.479 6.50183 16.3104 5.59322 17.6129C5.12445 18.285 4.70188 19.0585 4.41781 19.9221C5.75648 19.6982 7.14019 20.9973 6.51082 22.5129C5.98791 23.8797 4.60509 27.9824 4.92065 32.2058C4.989 33.1206 4.30235 33.9175 3.38697 33.9858C2.4716 34.0541 1.67413 33.3679 1.60578 32.4532C1.38461 29.4931 1.86263 26.6418 2.40668 24.503C2.196 24.4795 1.98916 24.4209 1.79537 24.3278C1.22395 24.0533 0.762086 23.4643 0.738191 22.7087C0.591027 19.7862 1.69088 17.3983 2.86629 15.7133C2.94427 15.6015 3.02285 15.4925 3.10172 15.3861C2.71356 15.3125 2.36591 15.1196 2.10879 14.8624C1.60459 14.3579 1.38172 13.5475 1.71713 12.7785C2.33205 11.3532 3.6339 10.1753 4.7908 9.31978C5.70013 8.64736 6.66326 8.0716 7.47364 7.63288C7.50379 7.19291 7.54737 6.6652 7.59306 6.11183C7.60619 5.95283 7.61949 5.79172 7.6327 5.62997C7.73517 4.37483 7.84513 2.95076 7.88704 1.722C7.89841 1.31053 8.05747 0.89987 8.3646 0.580692C8.64336 0.291082 8.95174 0.172217 9.11884 0.122041C9.29491 0.069182 9.44376 0.0544807 9.52101 0.0489614C9.59787 0.0434635 9.66414 0.0436734 9.67643 0.0437125L9.67806 0.0437163C9.86116 0.0437163 10.043 0.0739661 10.2163 0.133243C11.8624 0.696361 13.2652 1.87504 14.4734 3.18183C15.6923 4.50021 16.8404 6.09264 17.9293 7.6461C18.4559 8.39746 18.2733 9.43314 17.5216 9.95937C16.7697 10.4857 15.7333 10.3032 15.2067 9.55191C14.1141 7.99317 13.0808 6.57066 12.0318 5.43603C11.6966 5.07339 11.3721 4.75417 11.0573 4.47765ZM6.15592 15.3239C6.18888 15.3373 6.22276 15.3498 6.25759 15.3614C6.22668 15.3512 6.19608 15.3399 6.16583 15.3278C6.16259 15.3265 6.15929 15.3252 6.15592 15.3239Z" fill="#30424F"/>
<path opacity="0.6" d="M48.1243 12.2515C47.5412 12.8567 46.5692 12.8782 45.9429 12.3379C45.5973 12.0138 45.1221 11.7976 44.6253 11.7976C43.567 11.7976 42.7031 12.6837 42.7031 13.7859V16.9414H45.1221C45.9644 16.9414 46.6772 17.633 46.6772 18.4759C46.6772 19.3404 45.9644 20.032 45.1221 20.032H42.7031V26.4941C42.7031 27.337 41.9903 28.0502 41.1263 28.0502C40.284 28.0502 39.5712 27.337 39.5712 26.4941V26.4509C39.5712 24.4193 39.5712 22.3877 39.5712 20.3778V13.7644C39.5712 10.9764 41.8607 8.70703 44.6253 8.70703C45.8996 8.70703 47.1092 9.18249 48.0595 10.047C48.6643 10.6521 48.6859 11.6247 48.1243 12.2515Z" fill="#30424F"/>
<path opacity="0.6" d="M53.8045 28.0716C50.3055 28.0716 47.4329 25.2188 47.4329 21.696C47.4329 18.1948 50.3055 15.3203 53.8045 15.3203C57.3035 15.3203 60.176 18.1948 60.1977 21.7176C60.176 25.2404 57.3035 28.0716 53.8045 28.0716ZM53.8045 18.4541C52.0118 18.4541 50.543 19.9021 50.543 21.7176C50.543 23.5115 51.9902 24.981 53.8045 24.981C55.5971 24.981 57.0659 23.533 57.0659 21.7176C57.0443 19.9021 55.5971 18.4541 53.8045 18.4541Z" fill="#30424F"/>
<path opacity="0.6" d="M67.8222 28.0501C66.1375 28.0501 64.6041 27.4234 63.3946 26.2779C62.185 25.0892 61.4938 23.5115 61.429 21.8042C61.4075 20.1184 62.0122 18.4974 63.2217 17.2871C64.388 16.0769 65.9648 15.3853 67.6711 15.3204C69.3773 15.2988 70.9756 15.9256 72.1852 17.1142C72.7899 17.6762 72.8116 18.6703 72.2284 19.2539C71.6452 19.859 70.6733 19.8806 70.0685 19.297C69.4421 18.6919 68.5998 18.3461 67.7143 18.3461C66.8287 18.3461 66.0079 18.7351 65.3816 19.362C64.7984 19.9887 64.4313 20.8315 64.4745 21.7177C64.4745 22.5821 64.8632 23.4467 65.4896 24.0302C66.116 24.657 66.9583 25.0028 67.8222 24.9812C68.6646 24.9812 69.4421 24.657 70.0469 24.0951C70.6301 23.5115 71.6236 23.5547 72.1852 24.1815C72.7684 24.7867 72.7251 25.7592 72.0988 26.3427C70.9541 27.4017 69.4638 28.0285 67.887 28.0501H67.8222Z" fill="#30424F"/>
<path opacity="0.6" d="M80.2415 28.2014C76.9366 28.2014 74.2151 25.327 74.2151 21.8258V16.9629C74.2151 16.1201 74.8416 15.4285 75.6406 15.4285C76.4615 15.4285 77.239 16.1201 77.239 16.9629V21.8258C77.239 23.6628 78.7723 25.1325 80.2415 25.1325C81.969 25.1325 83.2649 23.6628 83.2649 21.8258V17.1791C83.2649 16.3146 84.1503 15.6446 84.8416 15.6446C85.6195 15.6446 86.2891 16.3146 86.2891 17.1791V21.8258C86.2891 25.327 83.5889 28.2014 80.2415 28.2014Z" fill="#30424F"/>
<path opacity="0.6" d="M92.6383 28.1798C91.0183 28.1798 89.3767 27.5099 88.5563 26.7318C87.9516 26.1699 87.8867 25.1974 88.4697 24.5922C89.0319 23.9655 90.0038 23.9222 90.6085 24.4841C91.0616 24.9164 92.7682 25.5 93.7402 24.8732C93.9992 24.7219 94.15 24.4409 94.15 24.16C94.15 23.8142 93.8477 23.5548 93.5886 23.4467C93.3513 23.3171 92.9623 23.3171 92.4875 23.3171C91.8828 23.3171 91.1916 23.2954 90.4786 23.0361C89.161 22.6038 88.0815 21.2423 87.9949 19.9023C87.865 18.303 88.5563 17.3088 89.1393 16.7469C90.4137 15.5798 92.271 15.4069 93.6103 15.623C94.6256 15.796 95.3818 16.1634 96.0298 16.7469C96.6345 17.3088 96.6987 18.2814 96.1373 18.8866C95.8133 19.2324 95.3169 19.4269 94.8413 19.362C94.6039 19.3404 94.3882 19.2539 94.1717 19.1243C93.8268 18.8649 93.567 18.692 93.1139 18.6056C92.3576 18.4759 90.9325 18.5191 91.04 19.6214C91.0616 19.751 91.299 20.0752 91.4939 20.1616C91.7529 20.2481 92.1202 20.2481 92.5308 20.2481C93.1997 20.2697 94.0209 20.2697 94.863 20.6587C96.2672 21.2855 97.1742 22.6687 97.1742 24.1383C97.1742 25.4351 96.5046 26.6454 95.4244 27.4018C94.5606 27.9854 93.6103 28.1798 92.6383 28.1798Z" fill="#30424F"/>
<path opacity="0.6" d="M107.498 12.2515C106.915 12.8567 105.943 12.8782 105.317 12.3379C104.971 12.0138 104.496 11.7976 103.999 11.7976C102.94 11.7976 102.077 12.6837 102.077 13.7859V16.9414H104.496C105.338 16.9414 106.051 17.633 106.051 18.4759C106.051 19.3404 105.338 20.032 104.496 20.032H102.077V26.4941C102.077 27.337 101.364 28.0502 100.5 28.0502C99.6579 28.0502 98.945 27.337 98.945 26.4941V26.4509C98.945 24.4193 98.945 22.3877 98.945 20.3778V13.7644C98.945 10.9764 101.235 8.70703 103.999 8.70703C105.273 8.70703 106.483 9.18249 107.433 10.047C108.038 10.6521 108.059 11.6247 107.498 12.2515Z" fill="#30424F"/>
<path opacity="0.6" d="M113.158 28.0716C109.659 28.0716 106.787 25.2188 106.787 21.696C106.787 18.1948 109.659 15.3203 113.158 15.3203C116.657 15.3203 119.53 18.1948 119.551 21.7176C119.53 25.2404 116.657 28.0716 113.158 28.0716ZM113.158 18.4541C111.365 18.4541 109.897 19.9021 109.897 21.7176C109.897 23.5115 111.343 24.981 113.158 24.981C114.972 24.981 116.419 23.533 116.419 21.7176C116.419 19.9021 114.972 18.4541 113.158 18.4541Z" fill="#30424F"/>
<path opacity="0.6" d="M132.208 25.5431C132.77 26.1266 132.748 27.0776 132.165 27.6611C131.884 27.9421 131.495 28.0717 131.128 28.0717C130.739 28.0717 130.372 27.9204 130.069 27.6178L126.506 23.9221L123.007 27.553C122.726 27.8556 122.338 28.0069 121.949 28.0069C121.603 28.0069 121.214 27.8772 120.912 27.5963C120.329 27.0127 120.307 26.0618 120.89 25.4782L124.476 21.7609L120.868 18.022C120.307 17.4168 120.307 16.4658 120.912 15.9039C121.495 15.3204 122.445 15.342 123.029 15.9256L126.528 19.5781L130.113 15.8607C130.675 15.2772 131.604 15.2556 132.23 15.8391C132.813 16.401 132.835 17.3304 132.251 17.9571L128.623 21.7393L132.208 25.5431Z" fill="#30424F"/>
</g>
</g>
<defs>
<clipPath id="clip0_1_226">
<rect width="133" height="34" fill="white"/>
</clipPath>
</defs>
</svg>
